<svg width="382" height="105" viewBox="0 0 382 105" fill="none" xmlns="http://www.w3.org/2000/svg">
<path d="M0.0357306 26.7916H19.7699C23.2377 26.7916 26.2407 27.1481 28.8147 27.8609C31.3887 28.5737 33.5337 29.5716 35.2497 30.8546C36.9658 32.1377 38.2527 33.6702 39.1107 35.4522C39.9687 37.2342 40.3977 39.1588 40.3977 41.2259C40.3977 42.7228 40.1117 44.1483 39.504 45.5026C38.932 46.8569 38.074 48.0687 37.0373 49.2092C35.9647 50.3497 34.6777 51.3476 33.1762 52.203C31.6747 53.0583 30.0302 53.8068 28.2069 54.3771L47.1903 79.6814H33.498L15.6228 55.767H12.7985V79.6814H0V26.7916H0.0357306ZM12.7985 51.1338H15.6228C17.2316 51.1338 23.1662 51.0625 24.5247 50.6348C25.8832 50.2071 27.0629 49.5656 28.0639 48.7459C29.0649 47.9262 29.8515 46.9282 30.3877 45.7165C30.9597 44.5047 31.2457 43.1504 31.2457 41.6536C31.2457 40.228 31.0312 38.9449 30.6022 37.8044C30.1732 36.6639 29.5654 35.6304 28.8147 34.7751C28.0639 33.9197 27.1344 33.2781 26.0619 32.8148C24.9894 32.3515 23.8097 32.1021 22.5584 32.1021L12.7985 31.9595V51.1338Z" fill="white"/>
<path d="M48.156 26.7914H61.2406V60.792C61.2406 62.8235 61.5623 64.7481 62.2058 66.5301C62.8493 68.3121 63.7789 69.8802 64.9586 71.2345C66.1384 72.5888 67.6041 73.6224 69.2844 74.4065C70.9646 75.1906 72.8952 75.5826 75.0044 75.5826C77.1137 75.5826 78.937 75.1906 80.6172 74.4065C82.2975 73.6224 83.7275 72.5532 84.9072 71.2345C86.087 69.8802 86.9808 68.3477 87.6243 66.5301C88.2678 64.7481 88.5895 62.8235 88.5895 60.792V26.7914H96.8478V60.792C96.8478 63.5363 96.3831 66.1024 95.4536 68.5259C94.5241 70.9495 93.0583 73.0878 91.0563 74.9054C89.0542 76.7231 86.516 78.1844 83.4058 79.2179C80.2955 80.2871 76.5417 80.8217 72.1444 80.8217C68.2476 80.8217 64.7799 80.2871 61.7769 79.2179C58.7738 78.1487 56.2713 76.6875 54.2336 74.8698C52.2315 73.0522 50.6943 70.8781 49.6575 68.4546C48.6208 65.9954 48.1202 63.3937 48.1202 60.6494V26.7559L48.156 26.7914Z" fill="white"/>
<path d="M104.212 26.7914H127.092C130.166 26.7914 132.955 27.1123 135.529 27.7538C138.067 28.3953 140.284 29.3219 142.107 30.498C143.93 31.6741 145.36 33.0998 146.397 34.7749C147.434 36.4499 147.934 38.3032 147.934 40.3347C147.934 41.5821 147.791 42.7226 147.505 43.7918C147.219 44.861 146.79 45.8589 146.147 46.7855C145.503 47.7122 144.681 48.6032 143.644 49.4942C142.608 50.3496 141.321 51.2405 139.819 52.0958C141.392 52.5948 142.822 53.2364 144.145 54.0561C145.468 54.8758 146.576 55.8381 147.541 56.9429C148.506 58.0478 149.257 59.2595 149.793 60.6139C150.33 61.9682 150.616 63.3937 150.616 64.8906C150.616 66.9577 150.151 68.9179 149.186 70.6999C148.22 72.4819 146.862 74.0501 145.11 75.3688C143.358 76.6874 141.213 77.7566 138.746 78.5051C136.28 79.2892 133.527 79.6456 130.524 79.6456H104.248V26.7559L104.212 26.7914ZM117.296 49.7436H128.236C129.63 49.7436 130.881 49.4941 131.954 49.0664C133.026 48.6387 133.956 48.0329 134.707 47.2844C135.458 46.5003 136.029 45.6094 136.423 44.5402C136.816 43.471 136.995 42.3305 136.995 41.0831C136.995 39.6931 136.745 38.4457 136.244 37.3053C135.744 36.1648 134.993 35.1669 133.956 34.3472C132.919 33.5275 131.632 32.8859 130.059 32.4226C128.486 31.9593 124.303 31.7811 122.123 31.7811H117.261V49.7436H117.296ZM117.296 74.2639L127.414 74.3352C129.523 74.3352 131.382 74.1214 132.919 73.6581C134.457 73.1948 135.743 72.5889 136.744 71.7692C137.745 70.9851 138.496 70.0228 138.997 68.9179C139.497 67.8131 139.712 66.6013 139.712 65.3182C139.712 63.8214 139.497 62.4671 139.033 61.2197C138.604 59.9723 137.853 58.8675 136.852 57.9052C135.851 56.9785 134.528 56.2301 132.883 55.7312C131.239 55.1966 129.237 54.9471 126.877 54.9471L117.261 54.8758V74.2639H117.296Z" fill="white"/>
<path d="M170.457 26.7916H157.408V79.6814H170.457V26.7916Z" fill="white"/>
<path d="M293.814 23.0138C302.609 12.1792 316.194 5.44332 331.245 5.90664C356.806 6.69072 376.862 28.0035 376.076 53.4861C375.289 78.9686 353.91 98.9626 328.349 98.1785C315.765 97.7865 304.432 92.3336 296.353 83.9225C293.528 83.9225 291.777 83.9225 288.559 83.9225C297.783 95.7194 311.975 103.525 328.17 104.024C356.985 104.915 381.045 82.3544 381.974 53.6285C382.868 24.9027 360.238 0.917067 331.424 0.0260673C313.155 -0.544173 296.746 8.33012 286.986 22.2297C286.986 22.2654 286.557 22.9426 286.521 22.9782H293.779L293.814 23.0138Z" fill="#CCA349"/>
<path d="M193.56 80V36.576H179.944V26.272H218.216V36.576H204.6V80H193.56Z" fill="white"/>
<path d="M321.56 80V36.576H307.944V26.272H346.216V36.576H332.6V80H321.56Z" fill="white"/>
<path d="M283.68 80.756C279.799 80.756 276.422 80.1008 273.55 78.7904C270.677 77.48 268.459 75.6404 266.897 73.2716C265.334 70.9028 264.553 68.1056 264.553 64.88H275.893C275.893 66.7448 276.599 68.2316 278.01 69.3404C279.472 70.3988 281.437 70.928 283.907 70.928C286.276 70.928 288.115 70.3988 289.426 69.3404C290.786 68.282 291.467 66.8204 291.467 64.9556C291.467 63.3428 290.963 61.9568 289.955 60.7976C288.947 59.6384 287.536 58.8572 285.721 58.454L280.127 57.1688C275.44 56.06 271.786 54.0188 269.165 51.0452C266.594 48.0212 265.309 44.342 265.309 40.0076C265.309 36.782 266.04 33.9848 267.502 31.616C269.014 29.1968 271.13 27.332 273.852 26.0216C276.574 24.7112 279.799 24.056 283.529 24.056C289.174 24.056 293.634 25.4672 296.91 28.2896C300.236 31.0616 301.9 34.8164 301.9 39.554H290.56C290.56 37.79 289.93 36.404 288.67 35.396C287.46 34.388 285.696 33.884 283.378 33.884C281.21 33.884 279.547 34.388 278.388 35.396C277.229 36.3536 276.649 37.7396 276.649 39.554C276.649 41.1668 277.103 42.5528 278.01 43.712C278.968 44.8208 280.303 45.5768 282.017 45.98L287.914 47.3408C292.802 48.4496 296.507 50.4656 299.027 53.3888C301.547 56.2616 302.807 59.9408 302.807 64.4264C302.807 67.652 302 70.4996 300.388 72.9692C298.825 75.4388 296.608 77.354 293.735 78.7148C290.912 80.0756 287.561 80.756 283.68 80.756Z" fill="white"/>
<path d="M224.888 79V25.272H258.008V34.6928H235.707V46.7632H255.432V56.184H235.707V69.5792H258.008V79H224.888Z" fill="white"/>
</svg>
